<svg width="366" height="56" viewBox="0 0 366 56" fill="none" xmlns="http://www.w3.org/2000/svg">
<rect x="0.5" y="0.5" width="365" height="55" rx="4.5" fill="white"/>
<path d="M17.28 24.92C17.6213 24.8347 18.0747 24.744 18.64 24.648C19.2053 24.552 19.856 24.504 20.592 24.504C21.2533 24.504 21.8027 24.6 22.24 24.792C22.6773 24.9733 23.024 25.2347 23.28 25.576C23.5467 25.9067 23.7333 26.3067 23.84 26.776C23.9467 27.2453 24 27.7627 24 28.328V33H22.512V28.648C22.512 28.136 22.4747 27.6987 22.4 27.336C22.336 26.9733 22.224 26.68 22.064 26.456C21.904 26.232 21.6907 26.072 21.424 25.976C21.1573 25.8693 20.8267 25.816 20.432 25.816C20.272 25.816 20.1067 25.8213 19.936 25.832C19.7653 25.8427 19.6 25.8587 19.44 25.88C19.2907 25.8907 19.152 25.9067 19.024 25.928C18.9067 25.9493 18.8213 25.9653 18.768 25.976V33H17.28V24.92ZM29.2835 31.928C29.6355 31.928 29.9448 31.9227 30.2115 31.912C30.4888 31.8907 30.7182 31.8587 30.8995 31.816V29.336C30.7928 29.2827 30.6168 29.24 30.3715 29.208C30.1368 29.1653 29.8488 29.144 29.5075 29.144C29.2835 29.144 29.0435 29.16 28.7875 29.192C28.5422 29.224 28.3128 29.2933 28.0995 29.4C27.8968 29.496 27.7262 29.6347 27.5875 29.816C27.4488 29.9867 27.3795 30.216 27.3795 30.504C27.3795 31.0373 27.5502 31.4107 27.8915 31.624C28.2328 31.8267 28.6968 31.928 29.2835 31.928ZM29.1555 24.472C29.7528 24.472 30.2542 24.552 30.6595 24.712C31.0755 24.8613 31.4062 25.08 31.6515 25.368C31.9075 25.6453 32.0888 25.9813 32.1955 26.376C32.3022 26.76 32.3555 27.1867 32.3555 27.656V32.856C32.2275 32.8773 32.0462 32.9093 31.8115 32.952C31.5875 32.984 31.3315 33.016 31.0435 33.048C30.7555 33.08 30.4408 33.1067 30.0995 33.128C29.7688 33.16 29.4382 33.176 29.1075 33.176C28.6382 33.176 28.2062 33.128 27.8115 33.032C27.4168 32.936 27.0755 32.7867 26.7875 32.584C26.4995 32.3707 26.2755 32.0933 26.1155 31.752C25.9555 31.4107 25.8755 31 25.8755 30.52C25.8755 30.0613 25.9662 29.6667 26.1475 29.336C26.3395 29.0053 26.5955 28.7387 26.9155 28.536C27.2355 28.3333 27.6088 28.184 28.0355 28.088C28.4622 27.992 28.9102 27.944 29.3795 27.944C29.5288 27.944 29.6835 27.9547 29.8435 27.976C30.0035 27.9867 30.1528 28.008 30.2915 28.04C30.4408 28.0613 30.5688 28.0827 30.6755 28.104C30.7822 28.1253 30.8568 28.1413 30.8995 28.152V27.736C30.8995 27.4907 30.8728 27.2507 30.8195 27.016C30.7662 26.7707 30.6702 26.5573 30.5315 26.376C30.3928 26.184 30.2008 26.0347 29.9555 25.928C29.7208 25.8107 29.4115 25.752 29.0275 25.752C28.5368 25.752 28.1048 25.7893 27.7315 25.864C27.3688 25.928 27.0968 25.9973 26.9155 26.072L26.7395 24.84C26.9315 24.7547 27.2515 24.6747 27.6995 24.6C28.1475 24.5147 28.6328 24.472 29.1555 24.472ZM36.2189 24.68H39.3709V25.928H36.2189V29.768C36.2189 30.184 36.2509 30.5307 36.3149 30.808C36.3789 31.0747 36.4749 31.288 36.6029 31.448C36.7309 31.5973 36.8909 31.704 37.0829 31.768C37.2749 31.832 37.4989 31.864 37.7549 31.864C38.2029 31.864 38.5602 31.816 38.8269 31.72C39.1042 31.6133 39.2962 31.5387 39.4029 31.496L39.6909 32.728C39.5415 32.8027 39.2802 32.8933 38.9069 33C38.5335 33.1173 38.1069 33.176 37.6269 33.176C37.0615 33.176 36.5922 33.1067 36.2189 32.968C35.8562 32.8187 35.5629 32.6 35.3389 32.312C35.1149 32.024 34.9549 31.672 34.8589 31.256C34.7735 30.8293 34.7309 30.3387 34.7309 29.784V22.36L36.2189 22.104V24.68ZM44.0804 31.928C44.4324 31.928 44.7417 31.9227 45.0084 31.912C45.2857 31.8907 45.515 31.8587 45.6964 31.816V29.336C45.5897 29.2827 45.4137 29.24 45.1684 29.208C44.9337 29.1653 44.6457 29.144 44.3044 29.144C44.0804 29.144 43.8404 29.16 43.5844 29.192C43.339 29.224 43.1097 29.2933 42.8964 29.4C42.6937 29.496 42.523 29.6347 42.3844 29.816C42.2457 29.9867 42.1764 30.216 42.1764 30.504C42.1764 31.0373 42.347 31.4107 42.6884 31.624C43.0297 31.8267 43.4937 31.928 44.0804 31.928ZM43.9524 24.472C44.5497 24.472 45.051 24.552 45.4564 24.712C45.8724 24.8613 46.203 25.08 46.4484 25.368C46.7044 25.6453 46.8857 25.9813 46.9924 26.376C47.099 26.76 47.1524 27.1867 47.1524 27.656V32.856C47.0244 32.8773 46.843 32.9093 46.6084 32.952C46.3844 32.984 46.1284 33.016 45.8404 33.048C45.5524 33.08 45.2377 33.1067 44.8964 33.128C44.5657 33.16 44.235 33.176 43.9044 33.176C43.435 33.176 43.003 33.128 42.6084 33.032C42.2137 32.936 41.8724 32.7867 41.5844 32.584C41.2964 32.3707 41.0724 32.0933 40.9124 31.752C40.7524 31.4107 40.6724 31 40.6724 30.52C40.6724 30.0613 40.763 29.6667 40.9444 29.336C41.1364 29.0053 41.3924 28.7387 41.7124 28.536C42.0324 28.3333 42.4057 28.184 42.8324 28.088C43.259 27.992 43.707 27.944 44.1764 27.944C44.3257 27.944 44.4804 27.9547 44.6404 27.976C44.8004 27.9867 44.9497 28.008 45.0884 28.04C45.2377 28.0613 45.3657 28.0827 45.4724 28.104C45.579 28.1253 45.6537 28.1413 45.6964 28.152V27.736C45.6964 27.4907 45.6697 27.2507 45.6164 27.016C45.563 26.7707 45.467 26.5573 45.3284 26.376C45.1897 26.184 44.9977 26.0347 44.7524 25.928C44.5177 25.8107 44.2084 25.752 43.8244 25.752C43.3337 25.752 42.9017 25.7893 42.5284 25.864C42.1657 25.928 41.8937 25.9973 41.7124 26.072L41.5364 24.84C41.7284 24.7547 42.0484 24.6747 42.4964 24.6C42.9444 24.5147 43.4297 24.472 43.9524 24.472ZM51.3838 32.136C51.3838 32.424 51.2878 32.6747 51.0958 32.888C50.9038 33.1013 50.6424 33.208 50.3118 33.208C49.9811 33.208 49.7198 33.1013 49.5278 32.888C49.3358 32.6747 49.2398 32.424 49.2398 32.136C49.2398 31.848 49.3358 31.5973 49.5278 31.384C49.7198 31.1707 49.9811 31.064 50.3118 31.064C50.6424 31.064 50.9038 31.1707 51.0958 31.384C51.2878 31.5973 51.3838 31.848 51.3838 32.136ZM57.1773 33.192C56.5053 33.192 55.9133 33.0853 55.4013 32.872C54.8999 32.6587 54.4733 32.36 54.1213 31.976C53.7799 31.592 53.5239 31.1387 53.3533 30.616C53.1826 30.0827 53.0973 29.496 53.0973 28.856C53.0973 28.216 53.1879 27.6293 53.3693 27.096C53.5613 26.5627 53.8279 26.104 54.1693 25.72C54.5106 25.3253 54.9266 25.0213 55.4173 24.808C55.9186 24.584 56.4733 24.472 57.0813 24.472C57.4546 24.472 57.8279 24.504 58.2013 24.568C58.5746 24.632 58.9319 24.7333 59.2733 24.872L58.9373 26.136C58.7133 26.0293 58.4519 25.944 58.1533 25.88C57.8653 25.816 57.5559 25.784 57.2253 25.784C56.3933 25.784 55.7533 26.0453 55.3053 26.568C54.8679 27.0907 54.6493 27.8533 54.6493 28.856C54.6493 29.304 54.6973 29.7147 54.7933 30.088C54.8999 30.4613 55.0599 30.7813 55.2733 31.048C55.4973 31.3147 55.7799 31.5227 56.1213 31.672C56.4626 31.8107 56.8786 31.88 57.3693 31.88C57.7639 31.88 58.1213 31.8427 58.4413 31.768C58.7613 31.6933 59.0119 31.6133 59.1933 31.528L59.4013 32.776C59.3159 32.8293 59.1933 32.8827 59.0333 32.936C58.8733 32.9787 58.6919 33.016 58.4893 33.048C58.2866 33.0907 58.0679 33.1227 57.8333 33.144C57.6093 33.176 57.3906 33.192 57.1773 33.192ZM60.9988 33V20.84L62.4868 20.584V24.84C62.7641 24.7333 63.0574 24.6533 63.3668 24.6C63.6868 24.536 64.0014 24.504 64.3108 24.504C64.9721 24.504 65.5214 24.6 65.9588 24.792C66.3961 24.9733 66.7428 25.2347 66.9988 25.576C67.2654 25.9067 67.4521 26.3067 67.5588 26.776C67.6654 27.2453 67.7188 27.7627 67.7188 28.328V33H66.2308V28.648C66.2308 28.136 66.1934 27.6987 66.1188 27.336C66.0548 26.9733 65.9428 26.68 65.7828 26.456C65.6228 26.232 65.4094 26.072 65.1428 25.976C64.8761 25.8693 64.5454 25.816 64.1508 25.816C63.9908 25.816 63.8254 25.8267 63.6548 25.848C63.4841 25.8693 63.3188 25.896 63.1588 25.928C63.0094 25.9493 62.8708 25.976 62.7428 26.008C62.6254 26.04 62.5401 26.0667 62.4868 26.088V33H60.9988ZM69.6754 28.856C69.6754 28.12 69.782 27.48 69.9954 26.936C70.2087 26.3813 70.4914 25.9227 70.8434 25.56C71.1954 25.1973 71.6007 24.9253 72.0594 24.744C72.518 24.5627 72.9874 24.472 73.4674 24.472C74.5874 24.472 75.446 24.824 76.0434 25.528C76.6407 26.2213 76.9394 27.2827 76.9394 28.712C76.9394 28.776 76.9394 28.8613 76.9394 28.968C76.9394 29.064 76.934 29.1547 76.9234 29.24H71.2274C71.2914 30.104 71.542 30.76 71.9794 31.208C72.4167 31.656 73.0994 31.88 74.0274 31.88C74.55 31.88 74.9874 31.8373 75.3394 31.752C75.702 31.656 75.974 31.5653 76.1554 31.48L76.3634 32.728C76.182 32.824 75.862 32.9253 75.4034 33.032C74.9554 33.1387 74.4434 33.192 73.8674 33.192C73.142 33.192 72.5127 33.0853 71.9794 32.872C71.4567 32.648 71.0247 32.344 70.6834 31.96C70.342 31.576 70.086 31.1227 69.9154 30.6C69.7554 30.0667 69.6754 29.4853 69.6754 28.856ZM75.3874 28.04C75.398 27.368 75.2274 26.8187 74.8754 26.392C74.534 25.9547 74.0594 25.736 73.4514 25.736C73.11 25.736 72.806 25.8053 72.5394 25.944C72.2834 26.072 72.0647 26.2427 71.8834 26.456C71.702 26.6693 71.558 26.9147 71.4514 27.192C71.3554 27.4693 71.2914 27.752 71.2594 28.04H75.3874ZM84.8529 28.856C84.8529 27.8853 84.6129 27.1387 84.1329 26.616C83.6529 26.0933 83.0129 25.832 82.2129 25.832C81.7649 25.832 81.4129 25.848 81.1569 25.88C80.9115 25.912 80.7142 25.9493 80.5649 25.992V31.24C80.7462 31.3893 81.0075 31.5333 81.3489 31.672C81.6902 31.8107 82.0635 31.88 82.4689 31.88C82.8955 31.88 83.2582 31.8053 83.5569 31.656C83.8662 31.496 84.1169 31.2827 84.3089 31.016C84.5009 30.7387 84.6395 30.4187 84.7249 30.056C84.8102 29.6827 84.8529 29.2827 84.8529 28.856ZM86.4049 28.856C86.4049 29.4853 86.3195 30.0667 86.1489 30.6C85.9889 31.1333 85.7489 31.592 85.4289 31.976C85.1089 32.36 84.7142 32.6587 84.2449 32.872C83.7862 33.0853 83.2582 33.192 82.6609 33.192C82.1809 33.192 81.7542 33.128 81.3809 33C81.0182 32.872 80.7462 32.7493 80.5649 32.632V35.96H79.0769V24.936C79.4289 24.8507 79.8662 24.76 80.3889 24.664C80.9222 24.5573 81.5355 24.504 82.2289 24.504C82.8689 24.504 83.4449 24.6053 83.9569 24.808C84.4689 25.0107 84.9062 25.2987 85.2689 25.672C85.6315 26.0453 85.9089 26.504 86.1009 27.048C86.3035 27.5813 86.4049 28.184 86.4049 28.856ZM91.5068 28.424C91.8268 28.6693 92.1628 28.9733 92.5148 29.336C92.8774 29.6987 93.2294 30.0933 93.5708 30.52C93.9228 30.936 94.2534 31.3627 94.5628 31.8C94.8721 32.2267 95.1334 32.6267 95.3468 33H93.6028C93.3788 32.6267 93.1174 32.248 92.8188 31.864C92.5308 31.4693 92.2268 31.096 91.9068 30.744C91.5868 30.3813 91.2614 30.0507 90.9308 29.752C90.6001 29.4533 90.2854 29.2027 89.9868 29V33H88.4988V20.84L89.9868 20.584V28.168C90.2428 27.912 90.5254 27.6293 90.8348 27.32C91.1441 27.0107 91.4481 26.696 91.7468 26.376C92.0454 26.056 92.3281 25.752 92.5948 25.464C92.8614 25.1653 93.0908 24.904 93.2828 24.68H95.0268C94.7814 24.9467 94.5148 25.24 94.2268 25.56C93.9388 25.88 93.6401 26.2053 93.3308 26.536C93.0214 26.856 92.7068 27.1813 92.3868 27.512C92.0774 27.832 91.7841 28.136 91.5068 28.424ZM103.733 28.84C103.733 29.5013 103.637 30.0987 103.445 30.632C103.253 31.1653 102.981 31.624 102.629 32.008C102.288 32.392 101.877 32.6907 101.397 32.904C100.917 33.1067 100.395 33.208 99.8294 33.208C99.264 33.208 98.7414 33.1067 98.2614 32.904C97.7814 32.6907 97.3654 32.392 97.0134 32.008C96.672 31.624 96.4054 31.1653 96.2134 30.632C96.0214 30.0987 95.9254 29.5013 95.9254 28.84C95.9254 28.1893 96.0214 27.5973 96.2134 27.064C96.4054 26.52 96.672 26.056 97.0134 25.672C97.3654 25.288 97.7814 24.9947 98.2614 24.792C98.7414 24.5787 99.264 24.472 99.8294 24.472C100.395 24.472 100.917 24.5787 101.397 24.792C101.877 24.9947 102.288 25.288 102.629 25.672C102.981 26.056 103.253 26.52 103.445 27.064C103.637 27.5973 103.733 28.1893 103.733 28.84ZM102.181 28.84C102.181 27.9013 101.968 27.16 101.541 26.616C101.125 26.0613 100.555 25.784 99.8294 25.784C99.104 25.784 98.528 26.0613 98.1014 26.616C97.6854 27.16 97.4774 27.9013 97.4774 28.84C97.4774 29.7787 97.6854 30.5253 98.1014 31.08C98.528 31.624 99.104 31.896 99.8294 31.896C100.555 31.896 101.125 31.624 101.541 31.08C101.968 30.5253 102.181 29.7787 102.181 28.84ZM115.587 32.312C115.246 32.312 114.963 32.264 114.739 32.168C114.515 32.072 114.328 31.944 114.179 31.784C113.944 31.912 113.662 32.024 113.331 32.12C113 32.2053 112.67 32.248 112.339 32.248C111.827 32.248 111.358 32.168 110.931 32.008C110.515 31.848 110.152 31.6133 109.843 31.304C109.534 30.984 109.294 30.5947 109.123 30.136C108.952 29.6773 108.867 29.144 108.867 28.536C108.867 28.024 108.947 27.544 109.107 27.096C109.267 26.6373 109.502 26.2427 109.811 25.912C110.131 25.5707 110.515 25.304 110.963 25.112C111.422 24.92 111.939 24.824 112.515 24.824C113.059 24.824 113.555 24.8667 114.003 24.952C114.462 25.0373 114.814 25.1227 115.059 25.208V30.104C115.059 30.4453 115.118 30.6853 115.235 30.824C115.352 30.9627 115.507 31.032 115.699 31.032C115.976 31.032 116.216 30.936 116.419 30.744C116.632 30.552 116.803 30.3013 116.931 29.992C117.07 29.6827 117.171 29.336 117.235 28.952C117.299 28.5573 117.331 28.1573 117.331 27.752C117.331 27.08 117.214 26.4507 116.979 25.864C116.744 25.2667 116.408 24.744 115.971 24.296C115.534 23.848 115 23.496 114.371 23.24C113.752 22.984 113.054 22.856 112.275 22.856C111.496 22.856 110.782 22.9893 110.131 23.256C109.48 23.512 108.92 23.8853 108.451 24.376C107.982 24.856 107.614 25.448 107.347 26.152C107.091 26.856 106.963 27.656 106.963 28.552C106.963 29.4907 107.102 30.3173 107.379 31.032C107.656 31.736 108.04 32.328 108.531 32.808C109.032 33.2773 109.619 33.6293 110.291 33.864C110.974 34.1093 111.72 34.232 112.531 34.232C113.16 34.232 113.678 34.1947 114.083 34.12C114.499 34.0453 114.766 33.9867 114.883 33.944L115.043 35.128C114.862 35.192 114.531 35.2613 114.051 35.336C113.582 35.4107 113.075 35.448 112.531 35.448C111.582 35.448 110.686 35.3093 109.843 35.032C109 34.7653 108.264 34.3493 107.635 33.784C107.006 33.2293 106.504 32.52 106.131 31.656C105.768 30.7813 105.587 29.7467 105.587 28.552C105.587 27.4 105.768 26.392 106.131 25.528C106.494 24.664 106.979 23.9493 107.587 23.384C108.206 22.808 108.915 22.376 109.715 22.088C110.526 21.8 111.379 21.656 112.275 21.656C113.15 21.656 113.976 21.8 114.755 22.088C115.534 22.3653 116.216 22.776 116.803 23.32C117.39 23.8533 117.854 24.504 118.195 25.272C118.536 26.0293 118.707 26.888 118.707 27.848C118.707 28.5733 118.622 29.2133 118.451 29.768C118.291 30.3227 118.072 30.792 117.795 31.176C117.518 31.5493 117.187 31.832 116.803 32.024C116.419 32.216 116.014 32.312 115.587 32.312ZM112.387 31.016C112.611 31.016 112.835 30.9947 113.059 30.952C113.294 30.8987 113.502 30.824 113.683 30.728C113.651 30.5893 113.63 30.4507 113.619 30.312C113.608 30.1733 113.603 30.04 113.603 29.912V26.152C113.539 26.1307 113.416 26.1093 113.235 26.088C113.054 26.0667 112.851 26.056 112.627 26.056C111.87 26.056 111.304 26.2907 110.931 26.76C110.558 27.2293 110.371 27.8213 110.371 28.536C110.371 29.2933 110.552 29.896 110.915 30.344C111.278 30.792 111.768 31.016 112.387 31.016ZM126.246 32.168C126.118 32.2533 125.867 32.3653 125.494 32.504C125.131 32.632 124.705 32.696 124.214 32.696C123.713 32.696 123.238 32.616 122.79 32.456C122.353 32.296 121.969 32.0507 121.638 31.72C121.307 31.3787 121.046 30.9573 120.854 30.456C120.662 29.9547 120.566 29.3573 120.566 28.664C120.566 28.056 120.657 27.5013 120.838 27C121.019 26.488 121.281 26.0507 121.622 25.688C121.974 25.3147 122.401 25.0267 122.902 24.824C123.403 24.6107 123.969 24.504 124.598 24.504C125.291 24.504 125.894 24.5573 126.406 24.664C126.929 24.76 127.366 24.8507 127.718 24.936V32.36C127.718 33.64 127.387 34.568 126.726 35.144C126.065 35.72 125.062 36.008 123.718 36.008C123.195 36.008 122.699 35.9653 122.23 35.88C121.771 35.7947 121.371 35.6933 121.03 35.576L121.302 34.28C121.601 34.3973 121.963 34.4987 122.39 34.584C122.827 34.68 123.281 34.728 123.75 34.728C124.635 34.728 125.27 34.552 125.654 34.2C126.049 33.848 126.246 33.288 126.246 32.52V32.168ZM126.23 25.992C126.081 25.9493 125.878 25.912 125.622 25.88C125.377 25.8373 125.041 25.816 124.614 25.816C123.814 25.816 123.195 26.0773 122.758 26.6C122.331 27.1227 122.118 27.816 122.118 28.68C122.118 29.16 122.177 29.5707 122.294 29.912C122.422 30.2533 122.587 30.536 122.79 30.76C123.003 30.984 123.243 31.1493 123.51 31.256C123.787 31.3627 124.07 31.416 124.358 31.416C124.753 31.416 125.115 31.3627 125.446 31.256C125.777 31.1387 126.038 31.0053 126.23 30.856V25.992ZM130.28 24.92C130.621 24.8347 131.069 24.744 131.624 24.648C132.189 24.552 132.84 24.504 133.576 24.504C134.109 24.504 134.557 24.5787 134.92 24.728C135.283 24.8667 135.587 25.0747 135.832 25.352C135.907 25.2987 136.024 25.224 136.184 25.128C136.344 25.032 136.541 24.9413 136.776 24.856C137.011 24.76 137.272 24.68 137.56 24.616C137.848 24.5413 138.157 24.504 138.488 24.504C139.128 24.504 139.651 24.6 140.056 24.792C140.461 24.9733 140.776 25.2347 141 25.576C141.235 25.9173 141.389 26.3227 141.464 26.792C141.549 27.2613 141.592 27.7733 141.592 28.328V33H140.104V28.648C140.104 28.1573 140.077 27.736 140.024 27.384C139.981 27.032 139.891 26.7387 139.752 26.504C139.624 26.2693 139.443 26.0987 139.208 25.992C138.984 25.8747 138.691 25.816 138.328 25.816C137.827 25.816 137.411 25.8853 137.08 26.024C136.76 26.152 136.541 26.2693 136.424 26.376C136.509 26.6533 136.573 26.9573 136.616 27.288C136.659 27.6187 136.68 27.9653 136.68 28.328V33H135.192V28.648C135.192 28.1573 135.165 27.736 135.112 27.384C135.059 27.032 134.963 26.7387 134.824 26.504C134.696 26.2693 134.515 26.0987 134.28 25.992C134.056 25.8747 133.768 25.816 133.416 25.816C133.267 25.816 133.107 25.8213 132.936 25.832C132.765 25.8427 132.6 25.8587 132.44 25.88C132.291 25.8907 132.152 25.9067 132.024 25.928C131.896 25.9493 131.811 25.9653 131.768 25.976V33H130.28V24.92ZM146.877 31.928C147.229 31.928 147.539 31.9227 147.805 31.912C148.083 31.8907 148.312 31.8587 148.493 31.816V29.336C148.387 29.2827 148.211 29.24 147.965 29.208C147.731 29.1653 147.443 29.144 147.101 29.144C146.877 29.144 146.637 29.16 146.381 29.192C146.136 29.224 145.907 29.2933 145.693 29.4C145.491 29.496 145.32 29.6347 145.181 29.816C145.043 29.9867 144.973 30.216 144.973 30.504C144.973 31.0373 145.144 31.4107 145.485 31.624C145.827 31.8267 146.291 31.928 146.877 31.928ZM146.749 24.472C147.347 24.472 147.848 24.552 148.253 24.712C148.669 24.8613 149 25.08 149.245 25.368C149.501 25.6453 149.683 25.9813 149.789 26.376C149.896 26.76 149.949 27.1867 149.949 27.656V32.856C149.821 32.8773 149.64 32.9093 149.405 32.952C149.181 32.984 148.925 33.016 148.637 33.048C148.349 33.08 148.035 33.1067 147.693 33.128C147.363 33.16 147.032 33.176 146.701 33.176C146.232 33.176 145.8 33.128 145.405 33.032C145.011 32.936 144.669 32.7867 144.381 32.584C144.093 32.3707 143.869 32.0933 143.709 31.752C143.549 31.4107 143.469 31 143.469 30.52C143.469 30.0613 143.56 29.6667 143.741 29.336C143.933 29.0053 144.189 28.7387 144.509 28.536C144.829 28.3333 145.203 28.184 145.629 28.088C146.056 27.992 146.504 27.944 146.973 27.944C147.123 27.944 147.277 27.9547 147.437 27.976C147.597 27.9867 147.747 28.008 147.885 28.04C148.035 28.0613 148.163 28.0827 148.269 28.104C148.376 28.1253 148.451 28.1413 148.493 28.152V27.736C148.493 27.4907 148.467 27.2507 148.413 27.016C148.36 26.7707 148.264 26.5573 148.125 26.376C147.987 26.184 147.795 26.0347 147.549 25.928C147.315 25.8107 147.005 25.752 146.621 25.752C146.131 25.752 145.699 25.7893 145.325 25.864C144.963 25.928 144.691 25.9973 144.509 26.072L144.333 24.84C144.525 24.7547 144.845 24.6747 145.293 24.6C145.741 24.5147 146.227 24.472 146.749 24.472ZM153.909 33H152.421V24.68H153.909V33ZM153.157 23.176C152.89 23.176 152.661 23.0907 152.469 22.92C152.287 22.7387 152.197 22.4987 152.197 22.2C152.197 21.9013 152.287 21.6667 152.469 21.496C152.661 21.3147 152.89 21.224 153.157 21.224C153.423 21.224 153.647 21.3147 153.829 21.496C154.021 21.6667 154.117 21.9013 154.117 22.2C154.117 22.4987 154.021 22.7387 153.829 22.92C153.647 23.0907 153.423 23.176 153.157 23.176ZM158.964 33.16C158.046 33.1387 157.396 32.9413 157.012 32.568C156.628 32.1947 156.436 31.6133 156.436 30.824V20.84L157.924 20.584V30.584C157.924 30.8293 157.945 31.032 157.988 31.192C158.03 31.352 158.1 31.48 158.196 31.576C158.292 31.672 158.42 31.7467 158.58 31.8C158.74 31.8427 158.937 31.88 159.172 31.912L158.964 33.16ZM162.603 32.136C162.603 32.424 162.507 32.6747 162.315 32.888C162.123 33.1013 161.861 33.208 161.531 33.208C161.2 33.208 160.939 33.1013 160.747 32.888C160.555 32.6747 160.459 32.424 160.459 32.136C160.459 31.848 160.555 31.5973 160.747 31.384C160.939 31.1707 161.2 31.064 161.531 31.064C161.861 31.064 162.123 31.1707 162.315 31.384C162.507 31.5973 162.603 31.848 162.603 32.136ZM168.396 33.192C167.724 33.192 167.132 33.0853 166.62 32.872C166.119 32.6587 165.692 32.36 165.34 31.976C164.999 31.592 164.743 31.1387 164.572 30.616C164.401 30.0827 164.316 29.496 164.316 28.856C164.316 28.216 164.407 27.6293 164.588 27.096C164.78 26.5627 165.047 26.104 165.388 25.72C165.729 25.3253 166.145 25.0213 166.636 24.808C167.137 24.584 167.692 24.472 168.3 24.472C168.673 24.472 169.047 24.504 169.42 24.568C169.793 24.632 170.151 24.7333 170.492 24.872L170.156 26.136C169.932 26.0293 169.671 25.944 169.372 25.88C169.084 25.816 168.775 25.784 168.444 25.784C167.612 25.784 166.972 26.0453 166.524 26.568C166.087 27.0907 165.868 27.8533 165.868 28.856C165.868 29.304 165.916 29.7147 166.012 30.088C166.119 30.4613 166.279 30.7813 166.492 31.048C166.716 31.3147 166.999 31.5227 167.34 31.672C167.681 31.8107 168.097 31.88 168.588 31.88C168.983 31.88 169.34 31.8427 169.66 31.768C169.98 31.6933 170.231 31.6133 170.412 31.528L170.62 32.776C170.535 32.8293 170.412 32.8827 170.252 32.936C170.092 32.9787 169.911 33.016 169.708 33.048C169.505 33.0907 169.287 33.1227 169.052 33.144C168.828 33.176 168.609 33.192 168.396 33.192ZM179.358 28.84C179.358 29.5013 179.262 30.0987 179.07 30.632C178.878 31.1653 178.606 31.624 178.254 32.008C177.913 32.392 177.502 32.6907 177.022 32.904C176.542 33.1067 176.02 33.208 175.454 33.208C174.889 33.208 174.366 33.1067 173.886 32.904C173.406 32.6907 172.99 32.392 172.638 32.008C172.297 31.624 172.03 31.1653 171.838 30.632C171.646 30.0987 171.55 29.5013 171.55 28.84C171.55 28.1893 171.646 27.5973 171.838 27.064C172.03 26.52 172.297 26.056 172.638 25.672C172.99 25.288 173.406 24.9947 173.886 24.792C174.366 24.5787 174.889 24.472 175.454 24.472C176.02 24.472 176.542 24.5787 177.022 24.792C177.502 24.9947 177.913 25.288 178.254 25.672C178.606 26.056 178.878 26.52 179.07 27.064C179.262 27.5973 179.358 28.1893 179.358 28.84ZM177.806 28.84C177.806 27.9013 177.593 27.16 177.166 26.616C176.75 26.0613 176.18 25.784 175.454 25.784C174.729 25.784 174.153 26.0613 173.726 26.616C173.31 27.16 173.102 27.9013 173.102 28.84C173.102 29.7787 173.31 30.5253 173.726 31.08C174.153 31.624 174.729 31.896 175.454 31.896C176.18 31.896 176.75 31.624 177.166 31.08C177.593 30.5253 177.806 29.7787 177.806 28.84ZM181.452 24.92C181.793 24.8347 182.241 24.744 182.796 24.648C183.361 24.552 184.012 24.504 184.748 24.504C185.281 24.504 185.729 24.5787 186.092 24.728C186.455 24.8667 186.759 25.0747 187.004 25.352C187.079 25.2987 187.196 25.224 187.356 25.128C187.516 25.032 187.713 24.9413 187.948 24.856C188.183 24.76 188.444 24.68 188.732 24.616C189.02 24.5413 189.329 24.504 189.66 24.504C190.3 24.504 190.823 24.6 191.228 24.792C191.633 24.9733 191.948 25.2347 192.172 25.576C192.407 25.9173 192.561 26.3227 192.636 26.792C192.721 27.2613 192.764 27.7733 192.764 28.328V33H191.276V28.648C191.276 28.1573 191.249 27.736 191.196 27.384C191.153 27.032 191.063 26.7387 190.924 26.504C190.796 26.2693 190.615 26.0987 190.38 25.992C190.156 25.8747 189.863 25.816 189.5 25.816C188.999 25.816 188.583 25.8853 188.252 26.024C187.932 26.152 187.713 26.2693 187.596 26.376C187.681 26.6533 187.745 26.9573 187.788 27.288C187.831 27.6187 187.852 27.9653 187.852 28.328V33H186.364V28.648C186.364 28.1573 186.337 27.736 186.284 27.384C186.231 27.032 186.135 26.7387 185.996 26.504C185.868 26.2693 185.687 26.0987 185.452 25.992C185.228 25.8747 184.94 25.816 184.588 25.816C184.439 25.816 184.279 25.8213 184.108 25.832C183.937 25.8427 183.772 25.8587 183.612 25.88C183.463 25.8907 183.324 25.9067 183.196 25.928C183.068 25.9493 182.983 25.9653 182.94 25.976V33H181.452V24.92Z" fill="#222130"/>
<rect x="0.5" y="0.5" width="365" height="55" rx="4.5" stroke="#DFDFDF"/>
</svg>
