<svg width="199" height="72" viewBox="0 0 199 72" fill="none" xmlns="http://www.w3.org/2000/svg">
<g filter="url(#filter0_d_3897_14589)">
<path d="M84.672 34.128C84.0853 34.128 83.4933 34.1067 82.896 34.064C82.2987 34.032 81.776 33.9573 81.328 33.84V23.072C81.5627 23.0293 81.8133 22.992 82.08 22.96C82.3467 22.9173 82.6187 22.8853 82.896 22.864C83.1733 22.8427 83.4453 22.8267 83.712 22.816C83.9893 22.8053 84.2507 22.8 84.496 22.8C85.168 22.8 85.792 22.8533 86.368 22.96C86.944 23.056 87.44 23.2213 87.856 23.456C88.2827 23.6907 88.6133 24 88.848 24.384C89.0827 24.768 89.2 25.2427 89.2 25.808C89.2 26.3307 89.072 26.7787 88.816 27.152C88.5707 27.5253 88.224 27.824 87.776 28.048C88.448 28.272 88.944 28.6027 89.264 29.04C89.584 29.4773 89.744 30.032 89.744 30.704C89.744 31.8453 89.328 32.704 88.496 33.28C87.664 33.8453 86.3893 34.128 84.672 34.128ZM83.312 29.008V32.384C83.536 32.4053 83.776 32.4213 84.032 32.432C84.288 32.4427 84.5227 32.448 84.736 32.448C85.152 32.448 85.536 32.4213 85.888 32.368C86.2507 32.3147 86.56 32.224 86.816 32.096C87.0827 31.9573 87.2907 31.776 87.44 31.552C87.6 31.328 87.68 31.04 87.68 30.688C87.68 30.0587 87.4507 29.6213 86.992 29.376C86.5333 29.1307 85.8987 29.008 85.088 29.008H83.312ZM83.312 27.424H84.736C85.504 27.424 86.1067 27.3173 86.544 27.104C86.9813 26.88 87.2 26.4853 87.2 25.92C87.2 25.3867 86.9707 25.008 86.512 24.784C86.064 24.56 85.4773 24.448 84.752 24.448C84.4427 24.448 84.1653 24.4533 83.92 24.464C83.6853 24.4747 83.4827 24.4907 83.312 24.512V27.424ZM94.7556 28.368L96.5316 25.632H98.5636L95.8116 29.584C96.3876 30.3307 96.937 31.088 97.4596 31.856C97.993 32.6133 98.4303 33.328 98.7716 34H96.6756C96.5796 33.7973 96.4516 33.568 96.2916 33.312C96.1423 33.0453 95.977 32.7733 95.7956 32.496C95.625 32.208 95.4436 31.9253 95.2516 31.648C95.0596 31.3707 94.873 31.1093 94.6916 30.864C94.3183 31.344 93.9503 31.8773 93.5876 32.464C93.2356 33.04 92.9423 33.552 92.7076 34H90.7236C90.8836 33.68 91.0756 33.3387 91.2996 32.976C91.5236 32.6133 91.7636 32.2453 92.0196 31.872C92.2756 31.488 92.537 31.1093 92.8036 30.736C93.081 30.352 93.353 29.9893 93.6196 29.648L90.8516 25.632H92.9796L94.7556 28.368ZM107.503 29.808C107.503 30.4693 107.407 31.072 107.215 31.616C107.023 32.16 106.751 32.624 106.399 33.008C106.047 33.392 105.62 33.6907 105.119 33.904C104.628 34.1173 104.084 34.224 103.487 34.224C102.89 34.224 102.346 34.1173 101.855 33.904C101.364 33.6907 100.943 33.392 100.591 33.008C100.239 32.624 99.9618 32.16 99.7591 31.616C99.5671 31.072 99.4711 30.4693 99.4711 29.808C99.4711 29.1467 99.5671 28.5493 99.7591 28.016C99.9618 27.472 100.239 27.008 100.591 26.624C100.954 26.24 101.38 25.9467 101.871 25.744C102.362 25.5307 102.9 25.424 103.487 25.424C104.074 25.424 104.612 25.5307 105.103 25.744C105.604 25.9467 106.031 26.24 106.383 26.624C106.735 27.008 107.007 27.472 107.199 28.016C107.402 28.5493 107.503 29.1467 107.503 29.808ZM105.519 29.808C105.519 28.976 105.338 28.32 104.975 27.84C104.623 27.3493 104.127 27.104 103.487 27.104C102.847 27.104 102.346 27.3493 101.983 27.84C101.631 28.32 101.455 28.976 101.455 29.808C101.455 30.6507 101.631 31.3173 101.983 31.808C102.346 32.2987 102.847 32.544 103.487 32.544C104.127 32.544 104.623 32.2987 104.975 31.808C105.338 31.3173 105.519 30.6507 105.519 29.808ZM108.474 32.416H109.434C109.764 31.9787 110.02 31.4933 110.202 30.96C110.394 30.416 110.532 29.8507 110.618 29.264C110.703 28.6667 110.756 28.0587 110.778 27.44C110.799 26.8213 110.815 26.2187 110.826 25.632H116.826V32.416H118.106V36.368H116.378V34H110.186V36.368H108.474V32.416ZM114.89 32.416V27.232H112.618C112.596 27.6693 112.57 28.1173 112.538 28.576C112.506 29.024 112.447 29.472 112.362 29.92C112.276 30.3573 112.159 30.7893 112.01 31.216C111.871 31.632 111.684 32.032 111.45 32.416H114.89Z" fill="white"/>
<rect x="13" y="6" width="173" height="46" rx="4" stroke="white" stroke-width="2" shape-rendering="crispEdges"/>
</g>
<defs>
<filter id="filter0_d_3897_14589" x="0" y="0" width="199" height="72" filterUnits="userSpaceOnUse" color-interpolation-filters="sRGB">
<feFlood flood-opacity="0" result="BackgroundImageFix"/>
<feColorMatrix in="SourceAlpha" type="matrix" values="0 0 0 0 0 0 0 0 0 0 0 0 0 0 0 0 0 0 127 0" result="hardAlpha"/>
<feOffset dy="7"/>
<feGaussianBlur stdDeviation="6"/>
<feComposite in2="hardAlpha" operator="out"/>
<feColorMatrix type="matrix" values="0 0 0 0 0.0174537 0 0 0 0 0.0100694 0 0 0 0 0.120833 0 0 0 0.1 0"/>
<feBlend mode="normal" in2="BackgroundImageFix" result="effect1_dropShadow_3897_14589"/>
<feBlend mode="normal" in="SourceGraphic" in2="effect1_dropShadow_3897_14589" result="shape"/>
</filter>
</defs>
</svg>
