<?xml version="1.0" standalone="no"?>
<!DOCTYPE svg PUBLIC "-//W3C//DTD SVG 20010904//EN"
 "http://www.w3.org/TR/2001/REC-SVG-20010904/DTD/svg10.dtd">
<svg version="1.0" xmlns="http://www.w3.org/2000/svg"
 width="44.000000pt" height="44.000000pt" viewBox="0 0 44.000000 44.000000"
 preserveAspectRatio="xMidYMid meet">

<g transform="translate(0.000000,44.000000) scale(0.100000,-0.100000)"
fill="#000000" stroke="none">
<path d="M220 302 l-22 -18 26 -14 c19 -9 26 -21 26 -42 0 -32 7 -34 38 -12
26 18 22 59 -10 87 -25 21 -30 21 -58 -1z"/>
<path d="M153 263 c-34 -23 -32 -75 5 -93 15 -8 40 -23 55 -33 24 -16 32 -17
57 -7 25 10 30 18 30 47 l0 35 -26 -16 c-24 -16 -27 -16 -56 2 l-30 19 23 17
c23 16 23 16 4 31 -25 18 -34 18 -62 -2z"/>
</g>
</svg>
