<svg width="199" height="72" viewBox="0 0 199 72" fill="none" xmlns="http://www.w3.org/2000/svg">
<g filter="url(#filter0_d_3897_14582)">
<rect x="12" y="5" width="175" height="48" rx="5" fill="#222130" shape-rendering="crispEdges"/>
<path d="M54.464 22.8C56.0747 22.8 57.3067 23.0933 58.16 23.68C59.024 24.2667 59.456 25.184 59.456 26.432C59.456 27.0827 59.3387 27.6427 59.104 28.112C58.88 28.5707 58.5493 28.9493 58.112 29.248C57.6747 29.536 57.1413 29.7493 56.512 29.888C55.8827 30.0267 55.1627 30.096 54.352 30.096H53.344V34H51.328V23.072C51.7973 22.9653 52.3147 22.896 52.88 22.864C53.456 22.8213 53.984 22.8 54.464 22.8ZM54.608 24.544C54.096 24.544 53.6747 24.56 53.344 24.592V28.368H54.32C55.2907 28.368 56.0373 28.2347 56.56 27.968C57.0827 27.6907 57.344 27.1733 57.344 26.416C57.344 26.0533 57.2747 25.7493 57.136 25.504C56.9973 25.2587 56.8053 25.0667 56.56 24.928C56.3147 24.7893 56.0213 24.6933 55.68 24.64C55.3493 24.576 54.992 24.544 54.608 24.544ZM60.7368 29.856C60.7368 29.12 60.8434 28.4747 61.0568 27.92C61.2808 27.3653 61.5741 26.9067 61.9368 26.544C62.2994 26.1707 62.7154 25.8933 63.1848 25.712C63.6541 25.52 64.1341 25.424 64.6248 25.424C65.7768 25.424 66.6728 25.7813 67.3128 26.496C67.9634 27.2107 68.2888 28.2773 68.2888 29.696C68.2888 29.8027 68.2834 29.9253 68.2728 30.064C68.2728 30.192 68.2674 30.3093 68.2568 30.416H62.7368C62.7901 31.088 63.0248 31.6107 63.4408 31.984C63.8674 32.3467 64.4808 32.528 65.2808 32.528C65.7501 32.528 66.1768 32.4853 66.5608 32.4C66.9554 32.3147 67.2648 32.224 67.4888 32.128L67.7448 33.712C67.6381 33.7653 67.4888 33.824 67.2968 33.888C67.1154 33.9413 66.9021 33.9893 66.6568 34.032C66.4221 34.0853 66.1661 34.128 65.8888 34.16C65.6114 34.192 65.3288 34.208 65.0408 34.208C64.3048 34.208 63.6648 34.1013 63.1208 33.888C62.5768 33.664 62.1288 33.36 61.7768 32.976C61.4248 32.5813 61.1634 32.1227 60.9928 31.6C60.8221 31.0667 60.7368 30.4853 60.7368 29.856ZM66.3528 28.992C66.3528 28.7253 66.3154 28.4747 66.2408 28.24C66.1661 27.9947 66.0541 27.7867 65.9048 27.616C65.7661 27.4347 65.5901 27.296 65.3768 27.2C65.1741 27.0933 64.9288 27.04 64.6408 27.04C64.3421 27.04 64.0808 27.0987 63.8568 27.216C63.6328 27.3227 63.4408 27.4667 63.2808 27.648C63.1314 27.8293 63.0141 28.0373 62.9288 28.272C62.8434 28.5067 62.7848 28.7467 62.7528 28.992H66.3528ZM75.8934 27.232H72.2774V34H70.3414V25.632H75.8934V27.232ZM84.6538 25.632V34H82.7338C82.7338 33.392 82.7338 32.7893 82.7338 32.192C82.7444 31.5947 82.7498 31.04 82.7498 30.528C82.7604 30.016 82.7658 29.5733 82.7658 29.2C82.7764 28.816 82.7818 28.5333 82.7818 28.352C82.4618 28.768 82.1311 29.2267 81.7898 29.728C81.4484 30.2293 81.1071 30.7307 80.7658 31.232C80.4351 31.7333 80.1204 32.224 79.8218 32.704C79.5231 33.184 79.2618 33.616 79.0378 34H77.3258V25.632H79.2298C79.2298 26.2507 79.2244 26.8427 79.2138 27.408C79.2138 27.9627 79.2138 28.4693 79.2138 28.928C79.2138 29.3867 79.2084 29.7867 79.1978 30.128C79.1978 30.4693 79.1978 30.7307 79.1978 30.912C79.4964 30.4533 79.8058 29.984 80.1258 29.504C80.4458 29.0133 80.7658 28.5387 81.0858 28.08C81.4164 27.6107 81.7418 27.168 82.0618 26.752C82.3818 26.336 82.6911 25.9627 82.9898 25.632H84.6538ZM86.6586 29.824C86.6586 29.2053 86.7546 28.6293 86.9466 28.096C87.1386 27.552 87.4106 27.0827 87.7626 26.688C88.1253 26.2933 88.5626 25.984 89.0746 25.76C89.5866 25.536 90.1626 25.424 90.8026 25.424C91.592 25.424 92.3386 25.568 93.0426 25.856L92.6266 27.44C92.4026 27.344 92.1466 27.264 91.8586 27.2C91.5813 27.136 91.2826 27.104 90.9626 27.104C90.2053 27.104 89.6293 27.344 89.2346 27.824C88.84 28.2933 88.6426 28.96 88.6426 29.824C88.6426 30.656 88.8293 31.3173 89.2026 31.808C89.576 32.288 90.2053 32.528 91.0906 32.528C91.4213 32.528 91.7466 32.496 92.0666 32.432C92.3866 32.368 92.664 32.288 92.8986 32.192L93.1706 33.792C92.9573 33.8987 92.632 33.9947 92.1946 34.08C91.768 34.1653 91.3253 34.208 90.8666 34.208C90.152 34.208 89.528 34.1013 88.9946 33.888C88.472 33.664 88.0346 33.36 87.6826 32.976C87.3413 32.5813 87.0853 32.1173 86.9146 31.584C86.744 31.04 86.6586 30.4533 86.6586 29.824ZM101.177 27.248H98.4726V34H96.5366V27.248H93.8486V25.632H101.177V27.248ZM108.175 29.856C108.175 28.992 107.977 28.32 107.583 27.84C107.199 27.36 106.575 27.12 105.711 27.12C105.529 27.12 105.337 27.1307 105.135 27.152C104.943 27.1627 104.751 27.1947 104.559 27.248V32.032C104.729 32.1493 104.953 32.2613 105.231 32.368C105.519 32.464 105.823 32.512 106.143 32.512C106.847 32.512 107.359 32.272 107.679 31.792C108.009 31.312 108.175 30.6667 108.175 29.856ZM110.159 29.824C110.159 30.464 110.073 31.0507 109.903 31.584C109.743 32.1173 109.508 32.576 109.199 32.96C108.889 33.344 108.5 33.6427 108.031 33.856C107.572 34.0693 107.049 34.176 106.463 34.176C106.068 34.176 105.705 34.128 105.375 34.032C105.044 33.936 104.772 33.8293 104.559 33.712V36.96H102.623V25.904C103.017 25.7973 103.503 25.696 104.079 25.6C104.655 25.504 105.263 25.456 105.903 25.456C106.564 25.456 107.156 25.5573 107.679 25.76C108.201 25.9627 108.644 26.256 109.007 26.64C109.38 27.0133 109.663 27.472 109.855 28.016C110.057 28.5493 110.159 29.152 110.159 29.824ZM115.098 32.64C115.695 32.64 116.149 32.608 116.458 32.544V30.4C116.351 30.368 116.197 30.336 115.994 30.304C115.791 30.272 115.567 30.256 115.322 30.256C115.109 30.256 114.89 30.272 114.666 30.304C114.453 30.336 114.255 30.3947 114.074 30.48C113.903 30.5653 113.765 30.688 113.658 30.848C113.551 30.9973 113.498 31.1893 113.498 31.424C113.498 31.8827 113.642 32.2027 113.93 32.384C114.218 32.5547 114.607 32.64 115.098 32.64ZM114.938 25.424C115.578 25.424 116.117 25.504 116.554 25.664C116.991 25.824 117.338 26.048 117.594 26.336C117.861 26.624 118.047 26.976 118.154 27.392C118.271 27.7973 118.33 28.2453 118.33 28.736V33.808C118.031 33.872 117.578 33.9467 116.97 34.032C116.373 34.128 115.695 34.176 114.938 34.176C114.437 34.176 113.978 34.128 113.562 34.032C113.146 33.936 112.789 33.7813 112.49 33.568C112.202 33.3547 111.973 33.0773 111.802 32.736C111.642 32.3947 111.562 31.9733 111.562 31.472C111.562 30.992 111.653 30.5867 111.834 30.256C112.026 29.9253 112.282 29.6587 112.602 29.456C112.922 29.2427 113.29 29.0933 113.706 29.008C114.133 28.912 114.575 28.864 115.034 28.864C115.247 28.864 115.471 28.88 115.706 28.912C115.941 28.9333 116.191 28.976 116.458 29.04V28.72C116.458 28.496 116.431 28.2827 116.378 28.08C116.325 27.8773 116.229 27.7013 116.09 27.552C115.962 27.392 115.786 27.2693 115.562 27.184C115.349 27.0987 115.077 27.056 114.746 27.056C114.298 27.056 113.887 27.088 113.514 27.152C113.141 27.216 112.837 27.2907 112.602 27.376L112.362 25.808C112.607 25.7227 112.965 25.6373 113.434 25.552C113.903 25.4667 114.405 25.424 114.938 25.424ZM128.909 32.416V36.368H127.197V34H120.701V25.632H122.637V32.416H125.709V25.632H127.645V32.416H128.909ZM137.763 25.632V34H135.843C135.843 33.392 135.843 32.7893 135.843 32.192C135.854 31.5947 135.859 31.04 135.859 30.528C135.87 30.016 135.875 29.5733 135.875 29.2C135.886 28.816 135.891 28.5333 135.891 28.352C135.571 28.768 135.24 29.2267 134.899 29.728C134.558 30.2293 134.216 30.7307 133.875 31.232C133.544 31.7333 133.23 32.224 132.931 32.704C132.632 33.184 132.371 33.616 132.147 34H130.435V25.632H132.339C132.339 26.2507 132.334 26.8427 132.323 27.408C132.323 27.9627 132.323 28.4693 132.323 28.928C132.323 29.3867 132.318 29.7867 132.307 30.128C132.307 30.4693 132.307 30.7307 132.307 30.912C132.606 30.4533 132.915 29.984 133.235 29.504C133.555 29.0133 133.875 28.5387 134.195 28.08C134.526 27.6107 134.851 27.168 135.171 26.752C135.491 26.336 135.8 25.9627 136.099 25.632H137.763ZM143.928 30.896C143.8 30.896 143.672 30.896 143.544 30.896C143.416 30.896 143.293 30.8907 143.176 30.88C142.835 31.392 142.52 31.92 142.232 32.464C141.944 32.9973 141.677 33.5093 141.432 34H139.448C139.736 33.3387 140.056 32.704 140.408 32.096C140.76 31.488 141.091 30.9707 141.4 30.544C140.877 30.32 140.493 30.0213 140.248 29.648C140.013 29.264 139.896 28.816 139.896 28.304C139.896 27.8347 139.981 27.424 140.152 27.072C140.333 26.7093 140.584 26.4107 140.904 26.176C141.224 25.9307 141.608 25.7493 142.056 25.632C142.504 25.504 143 25.44 143.544 25.44C144.173 25.44 144.781 25.4773 145.368 25.552C145.965 25.6267 146.451 25.712 146.824 25.808V34H144.888V30.896H143.928ZM144.888 27.04C144.771 27.0187 144.589 27.0027 144.344 26.992C144.099 26.9707 143.848 26.96 143.592 26.96C142.408 26.96 141.816 27.3973 141.816 28.272C141.816 28.5067 141.859 28.704 141.944 28.864C142.04 29.0133 142.168 29.136 142.328 29.232C142.488 29.328 142.675 29.3973 142.888 29.44C143.101 29.472 143.331 29.488 143.576 29.488H144.888V27.04Z" fill="white"/>
<rect x="13" y="6" width="173" height="46" rx="4" stroke="#222130" stroke-width="2" shape-rendering="crispEdges"/>
</g>
<defs>
<filter id="filter0_d_3897_14582" x="0" y="0" width="199" height="72" filterUnits="userSpaceOnUse" color-interpolation-filters="sRGB">
<feFlood flood-opacity="0" result="BackgroundImageFix"/>
<feColorMatrix in="SourceAlpha" type="matrix" values="0 0 0 0 0 0 0 0 0 0 0 0 0 0 0 0 0 0 127 0" result="hardAlpha"/>
<feOffset dy="7"/>
<feGaussianBlur stdDeviation="6"/>
<feComposite in2="hardAlpha" operator="out"/>
<feColorMatrix type="matrix" values="0 0 0 0 0.0174537 0 0 0 0 0.0100694 0 0 0 0 0.120833 0 0 0 0.1 0"/>
<feBlend mode="normal" in2="BackgroundImageFix" result="effect1_dropShadow_3897_14582"/>
<feBlend mode="normal" in="SourceGraphic" in2="effect1_dropShadow_3897_14582" result="shape"/>
</filter>
</defs>
</svg>
